<svg width="24" height="26" viewBox="0 0 24 26" fill="none" xmlns="http://www.w3.org/2000/svg">
<path fill-rule="evenodd" clip-rule="evenodd" d="M18.3025 13.9666C15.7584 14.0734 12.343 14.7953 10.5485 15.2804C8.754 15.7655 5.43127 16.8368 3.16498 18.0149C4.21853 15.5749 3.96672 13.1379 3.74386 10.926C3.41969 7.78732 3.14762 5.15103 7.50653 3.95849C14.7974 2.05562 12.9335 9.97317 18.3025 13.9666ZM5.88569 3.37232C6.75625 3.01942 7.66714 2.77502 8.5977 2.64467C8.60531 2.48811 8.58871 2.33131 8.5485 2.17978C8.47147 1.89899 8.31306 1.64713 8.09313 1.45579C7.87321 1.26445 7.60155 1.14215 7.31222 1.10422C7.0229 1.06629 6.72879 1.11442 6.46678 1.24258C6.20476 1.37073 5.98651 1.57321 5.83938 1.82462C5.70382 2.06142 5.63641 2.33095 5.64458 2.60353C5.65275 2.87611 5.73618 3.14114 5.88569 3.36944V3.37232ZM9.6802 2.56671C9.68591 2.00321 9.5037 1.4538 9.16222 1.0049C8.82075 0.556005 8.33938 0.233087 7.79384 0.0869403C7.2483 -0.0592063 6.66954 -0.0202885 6.1486 0.197572C5.62765 0.415433 5.19408 0.799876 4.91607 1.29043C4.69062 1.67764 4.57187 2.11747 4.57187 2.56527C4.57187 3.01306 4.69062 3.45289 4.91607 3.8401C2.08539 5.46288 2.35167 8.05009 2.66137 11.0329C2.9508 13.675 3.24024 16.6635 1.05789 19.4442C0.42853 20.0553 0.0515931 20.8795 0.00144599 21.7542C-0.0141306 22.6316 0.0960042 23.5067 0.32851 24.353C0.32851 24.3876 0.328509 24.4223 0.351664 24.4569C0.6411 25.5166 2.28799 26.0277 4.72505 25.9988C9.52679 25.9411 16.7569 24.0093 20.9335 21.6676C23.0695 20.4779 24.2417 19.2103 23.9581 18.1506C23.9581 18.1246 23.9436 18.0986 23.9349 18.0697C23.7088 17.2128 23.3619 16.3923 22.9045 15.6327C22.4192 14.9 21.6752 14.3764 20.8206 14.1658C17.5442 12.8462 16.3141 10.1089 15.2287 7.68626C13.9986 4.9258 12.9335 2.56382 9.6802 2.56671ZM13.7323 18.422C13.733 18.8288 13.6275 19.2287 13.4261 19.5824C13.2248 19.9362 12.9345 20.2314 12.584 20.4392C12.2335 20.647 11.8347 20.7601 11.4271 20.7674C11.0194 20.7747 10.6168 20.6759 10.2591 20.4808C9.88344 20.274 9.5728 19.9671 9.36182 19.5943C10.7979 19.1305 12.2566 18.7392 13.7323 18.422ZM8.31985 19.9408C6.79238 20.4618 5.31112 21.1089 3.89147 21.8755C2.21274 22.8168 1.24602 23.66 1.38785 24.1855C1.52967 24.711 2.78872 24.9593 4.71347 24.9362C9.32708 24.8785 16.3922 22.9901 20.4183 20.7349C22.097 19.7965 23.0637 18.9533 22.9219 18.4249C22.7801 17.8965 21.4747 17.6511 19.5963 17.6742C17.9826 17.7175 16.3753 17.8962 14.7916 18.2083C14.8444 18.9954 14.6218 19.7764 14.1617 20.418C13.7017 21.0596 13.0328 21.5221 12.2691 21.7266C11.5053 21.931 10.6942 21.8648 9.97397 21.5391C9.25377 21.2134 8.66914 20.6486 8.31985 19.9408ZM8.46746 18.7599C9.33577 18.4711 10.2793 18.1824 11.246 17.9225C12.207 17.6655 13.1505 17.446 14.0594 17.2641H14.1057C15.9092 16.8877 17.7428 16.6732 19.5847 16.6231C20.5267 16.5843 21.4694 16.6816 22.3836 16.9119C22.0044 16.0456 21.5152 15.4681 20.508 15.1793C19.6773 14.9512 18.3112 14.9917 16.8322 15.1591C14.8027 15.4092 12.7924 15.795 10.8148 16.3141C8.84214 16.8488 6.90812 17.5164 5.02606 18.3123C3.67439 18.8898 2.48192 19.5366 1.86831 20.1459L1.83358 20.1834C1.38239 20.6165 1.11071 21.2029 1.07236 21.8264C1.05734 22.0845 1.06508 22.3435 1.09551 22.6002C1.7705 21.9421 2.53662 21.3839 3.37048 20.9428C4.99396 20.0669 6.69303 19.3382 8.4472 18.7656L8.46746 18.7599Z" fill="#454545"/>
</svg>
