<svg width="26" height="23" viewBox="0 0 26 23" fill="none" xmlns="http://www.w3.org/2000/svg">
<path d="M9.20715 0.250318C9.13983 0.263108 9.07922 0.299167 9.036 0.352131C8.99279 0.405094 8.96975 0.471557 8.97096 0.539788V6.61865H0.540742C0.522614 6.61695 0.504365 6.61695 0.486237 6.61865C0.41892 6.63144 0.358305 6.6675 0.31509 6.72046C0.271874 6.77342 0.248838 6.83989 0.250045 6.90812V17.6185C0.250053 17.6953 0.280682 17.7689 0.335197 17.8232C0.389712 17.8775 0.463647 17.908 0.540742 17.908H2.86632V19.2015C2.86335 20.2027 2.13395 21.0833 1.27657 21.463C1.22553 21.4856 1.18211 21.5224 1.1515 21.5689C1.1209 21.6154 1.10439 21.6697 1.10397 21.7253V21.9605C1.10398 22.0373 1.13461 22.1109 1.18912 22.1652C1.24363 22.2195 1.31757 22.25 1.39467 22.25H4.54691C6.1934 22.25 7.51747 20.8777 7.51747 19.2015V17.908H13.6039C13.6425 17.9085 13.6807 17.9014 13.7165 17.8871C13.7522 17.8728 13.7847 17.8516 13.8122 17.8246C13.8396 17.7977 13.8614 17.7656 13.8763 17.7302C13.8911 17.6948 13.8988 17.6569 13.8988 17.6185C13.8988 17.5801 13.8911 17.5421 13.8763 17.5068C13.8614 17.4714 13.8396 17.4393 13.8122 17.4123C13.7847 17.3854 13.7522 17.3642 13.7165 17.3499C13.6807 17.3356 13.6425 17.3285 13.6039 17.329H7.22678C7.14968 17.329 7.07575 17.3595 7.02123 17.4138C6.96672 17.4681 6.93609 17.5417 6.93608 17.6185V19.2015C6.93608 20.5775 5.87098 21.6711 4.54691 21.6711H2.03057C2.83104 21.1276 3.4446 20.2531 3.44771 19.2015V17.6185C3.44771 17.5417 3.41708 17.4681 3.36256 17.4138C3.30805 17.3595 3.23411 17.329 3.15702 17.329H0.831439V7.19759H15.9477V17.329H15.3027C15.2642 17.3285 15.2259 17.3356 15.1902 17.3499C15.1544 17.3642 15.1219 17.3854 15.0945 17.4123C15.067 17.4393 15.0453 17.4714 15.0304 17.5068C15.0155 17.5421 15.0079 17.5801 15.0079 17.6185C15.0079 17.6569 15.0155 17.6948 15.0304 17.7302C15.0453 17.7656 15.067 17.7977 15.0945 17.8246C15.1219 17.8516 15.1544 17.8728 15.1902 17.8871C15.2259 17.9014 15.2642 17.9085 15.3027 17.908H16.2384C16.3155 17.908 16.3894 17.8775 16.4439 17.8232C16.4984 17.7689 16.5291 17.6953 16.5291 17.6185V11.5396H17.9826V12.8332C17.9826 14.5097 19.3063 15.8817 20.9531 15.8817H24.1054C24.1825 15.8817 24.2564 15.8512 24.3109 15.7969C24.3654 15.7426 24.3961 15.669 24.3961 15.5922V15.3661C24.3957 15.3104 24.3791 15.2561 24.3485 15.2096C24.3179 15.1631 24.2745 15.1263 24.2235 15.1037C23.3671 14.7245 22.6367 13.8347 22.6337 12.8332V11.5396H24.9593C25.0364 11.5396 25.1103 11.5091 25.1648 11.4548C25.2194 11.4006 25.25 11.3269 25.25 11.2502V0.539788C25.25 0.463018 25.2194 0.389395 25.1648 0.33511C25.1103 0.280826 25.0364 0.250326 24.9593 0.250318H9.26166C9.25258 0.249894 9.24348 0.249894 9.2344 0.250318C9.22532 0.249894 9.21623 0.249894 9.20715 0.250318ZM9.55235 0.829257H24.6686V10.9607H22.343C22.2659 10.9607 22.192 10.9912 22.1375 11.0455C22.083 11.0998 22.0523 11.1734 22.0523 11.2502V12.8332C22.0554 13.8772 22.6593 14.7565 23.4513 15.3027H20.9531C19.6294 15.3027 18.564 14.2089 18.564 12.8332V11.2502C18.564 11.1734 18.5333 11.0998 18.4788 11.0455C18.4243 10.9912 18.3504 10.9607 18.2733 10.9607H16.5291V6.90812C16.5291 6.83135 16.4984 6.75772 16.4439 6.70344C16.3894 6.64916 16.3155 6.61865 16.2384 6.61865H9.55235V0.829257Z" fill="#696969" stroke="#696969" stroke-width="0.5"/>
</svg>
