<svg width="22" height="22" viewBox="0 0 22 22" fill="none" xmlns="http://www.w3.org/2000/svg">
<path fill-rule="evenodd" clip-rule="evenodd" d="M9.0872 1.9131C5.12757 1.9131 1.9131 5.12757 1.9131 9.0872C1.9131 13.0468 5.12757 16.2613 9.0872 16.2613C13.0468 16.2613 16.2613 13.0468 16.2613 9.0872C16.2613 5.12757 13.0468 1.9131 9.0872 1.9131ZM9.0872 2.86964C12.5188 2.86964 15.3048 5.65559 15.3048 9.0872C15.3048 12.5188 12.5188 15.3048 9.0872 15.3048C5.65559 15.3048 2.86964 12.5188 2.86964 9.0872C2.86964 5.65559 5.65559 2.86964 9.0872 2.86964Z" fill="#454545"/>
<path fill-rule="evenodd" clip-rule="evenodd" d="M14.0158 16.7214L18.7349 21.4401C19.4815 22.1866 20.6935 22.1866 21.4401 21.4401C22.1866 20.6935 22.1866 19.4815 21.4401 18.7349L16.7214 14.0158C17.6407 12.5958 18.1744 10.9032 18.1744 9.0872C18.1744 4.07202 14.1024 0 9.0872 0C4.07202 0 0 4.07202 0 9.0872C0 14.1024 4.07202 18.1744 9.0872 18.1744C10.9032 18.1744 12.5958 17.6407 14.0158 16.7214ZM17.754 16.4014L16.4014 17.754L19.4112 20.7638C19.7843 21.1373 20.3907 21.1373 20.7638 20.7638C21.1373 20.3907 21.1373 19.7843 20.7638 19.4112L17.754 16.4014ZM9.0872 0.956548C13.5748 0.956548 17.2179 4.59956 17.2179 9.0872C17.2179 13.5748 13.5748 17.2179 9.0872 17.2179C4.59956 17.2179 0.956548 13.5748 0.956548 9.0872C0.956548 4.59956 4.59956 0.956548 9.0872 0.956548ZM16.1523 14.7997C15.75 15.2966 15.2966 15.75 14.7997 16.1523L15.7252 17.0777L17.0777 15.7252L16.1523 14.7997Z" fill="#454545"/>
</svg>
