<svg width="16" height="16" viewBox="0 0 16 16" fill="none" xmlns="http://www.w3.org/2000/svg">
<rect x="0.5" y="0.5" width="15" height="15" rx="7.5" stroke="#696969"/>
<path d="M11.3544 11.2278C11.6105 11.5341 11.3927 12 10.9935 12C10.8542 12 10.722 11.9382 10.6326 11.8313L4.73112 4.77219C4.47507 4.46591 4.69284 4 5.09205 4C5.23141 4 5.3636 4.06179 5.45298 4.16871L11.3544 11.2278ZM8.17659 7.65738C8.01414 7.47917 8.00828 7.20837 8.16286 7.02329L10.5436 4.17292C10.6352 4.06333 10.7706 4 10.9134 4C11.322 4 11.545 4.47673 11.2832 4.79042L8.9033 7.64154C8.71593 7.866 8.37355 7.87347 8.17659 7.65738ZM7.82085 8.051C8.07598 8.20375 8.13441 8.54823 7.94393 8.77657L5.39951 11.8267C5.30788 11.9365 5.17221 12 5.02916 12C4.62034 12 4.39693 11.5233 4.65851 11.2091L7.20004 8.15661C7.35269 7.97326 7.61616 7.92844 7.82085 8.051Z" fill="#696969"/>
</svg>
