<svg width="21" height="20" viewBox="0 0 21 20" fill="none" xmlns="http://www.w3.org/2000/svg">
<path d="M0.5 10C0.5 4.47581 4.97581 0 10.5 0C16.0242 0 20.5 4.47581 20.5 10C20.5 15.5242 16.0242 20 10.5 20C4.97581 20 0.5 15.5242 0.5 10ZM6.29032 11.1653L9.20968 8.12097L9.20968 15.4839C9.20968 16.0202 9.64113 16.4516 10.1774 16.4516H10.8226C11.3589 16.4516 11.7903 16.0202 11.7903 15.4839L11.7903 8.12097L14.7097 11.1653C15.0847 11.5565 15.7097 11.5645 16.0927 11.1815L16.5323 10.7379C16.9113 10.3589 16.9113 9.74597 16.5323 9.37097L11.1855 4.02016C10.8065 3.64113 10.1935 3.64113 9.81855 4.02016L4.46774 9.37097C4.08871 9.75 4.08871 10.3629 4.46774 10.7379L4.90726 11.1815C5.29032 11.5645 5.91532 11.5565 6.29032 11.1653Z" fill="#A9A9A9"/>
</svg>
