<svg width="20" height="21" viewBox="0 0 20 21" fill="none" xmlns="http://www.w3.org/2000/svg">
<path d="M0 10.5C0 4.97581 4.47581 0.5 10 0.5C15.5242 0.5 20 4.97581 20 10.5C20 16.0242 15.5242 20.5 10 20.5C4.47581 20.5 0 16.0242 0 10.5ZM5.79032 11.6653L8.70968 8.62097L8.70968 15.9839C8.70968 16.5202 9.14113 16.9516 9.67742 16.9516H10.3226C10.8589 16.9516 11.2903 16.5202 11.2903 15.9839L11.2903 8.62097L14.2097 11.6653C14.5847 12.0565 15.2097 12.0645 15.5927 11.6815L16.0323 11.2379C16.4113 10.8589 16.4113 10.246 16.0323 9.87097L10.6855 4.52016C10.3065 4.14113 9.69355 4.14113 9.31855 4.52016L3.96774 9.87097C3.58871 10.25 3.58871 10.8629 3.96774 11.2379L4.40726 11.6815C4.79032 12.0645 5.41532 12.0565 5.79032 11.6653Z" fill="#A9A9A9"/>
</svg>
