<svg width="26" height="28" viewBox="0 0 26 28" fill="none" xmlns="http://www.w3.org/2000/svg">
<path fill-rule="evenodd" clip-rule="evenodd" d="M1.33033 14.4457C0.799359 14.1902 0.425018 13.5417 0.512774 12.7838C0.689391 11.2821 1.11927 9.73061 1.72577 8.37752C2.08012 7.58609 2.88545 7.205 3.53528 7.37714L4.0718 7.51681L4.07291 7.51789C4.42504 7.611 4.85492 7.45401 5.1404 7.08699C5.83133 6.19598 6.64999 5.45652 7.43533 4.93253C7.78857 4.69542 8.03517 4.22771 8.03517 3.75028V3.74919L8.03739 3.11475C8.03739 2.30492 8.5817 1.57522 9.23373 1.38359C10.5112 1.00898 11.8363 0.920206 13.0005 1.06746C13.0538 1.07504 13.106 1.08478 13.1571 1.09886H13.1604L13.1615 1.09994L13.196 1.10968L17.0415 2.20208C17.0537 2.20533 17.0659 2.20857 17.0781 2.2129L17.0926 2.21615C17.0992 2.21832 17.107 2.22156 17.1148 2.22373C17.6791 2.41211 18.1312 3.00648 18.1323 3.76218L18.1345 4.41068V4.41176C18.1345 4.89787 18.3789 5.31037 18.7143 5.47059C18.8554 5.53663 18.9976 5.61025 19.1387 5.68929C19.1953 5.72068 19.2509 5.75316 19.3075 5.78672L23.4141 7.00254C23.7995 7.0859 24.1439 7.34466 24.3416 7.75173C24.8903 8.88852 25.3169 10.2873 25.4879 11.7586C25.579 12.5294 25.1447 13.3393 24.5271 13.6565L24.0139 13.9228H24.0128C23.6462 14.1112 23.3496 14.5486 23.2896 15.0358C23.163 16.0903 22.8664 17.2141 22.4354 18.2384C22.241 18.6974 22.2832 19.2171 22.5087 19.5451L22.8286 20.0117C23.2119 20.5682 23.193 21.4896 22.7176 22.1478V22.1489C21.8078 23.408 20.7125 24.4842 19.6529 25.2625C18.9831 25.7551 18.1633 25.6209 17.7435 25.0243L17.4124 24.5577V24.5566C17.1936 24.2448 16.8004 24.1246 16.4294 24.261C15.4308 24.6313 14.4033 24.7829 13.5089 24.758C13.1301 24.7472 12.6958 25.0092 12.4392 25.4617V25.4628L12.0982 26.0572C11.6483 26.8497 10.793 27.1593 10.1676 26.9222C9.68552 26.7392 9.2001 26.5011 8.72689 26.2131L8.72133 26.2098L5.37433 24.1539C5.24325 24.0781 5.1144 23.998 4.98554 23.9146C4.43791 23.5584 3.91251 23.1308 3.43819 22.6381C2.97387 22.1585 2.87056 21.2394 3.29378 20.5042L3.62257 19.9272H3.62368C3.87472 19.4898 3.90249 18.9463 3.71476 18.5652C3.30709 17.7391 2.96941 16.6901 2.82279 15.5522C2.80279 15.4017 2.75947 15.2653 2.69616 15.1451L1.33033 14.4457ZM13.0326 1.53284C13.0026 1.52526 12.9726 1.51876 12.9415 1.51551C11.8363 1.37477 10.5788 1.4603 9.36703 1.8154C8.88272 1.95831 8.50059 2.5137 8.50059 3.11566L8.49837 3.75011C8.49837 4.37912 8.16401 4.99192 7.69748 5.30372H7.69637C6.94768 5.80391 6.16789 6.5098 5.51029 7.35968H5.50918C5.09597 7.89019 4.46169 8.08831 3.95182 7.95297L3.4153 7.81331H3.41419C2.95209 7.68989 2.40113 7.99519 2.15009 8.55817C1.56137 9.87143 1.14369 11.3763 0.972641 12.8347C0.909324 13.3804 1.15481 13.8589 1.53694 14.0419L1.54249 14.0451L3.90297 15.2534C3.81744 15.0044 3.78411 14.7229 3.81855 14.4252C4.00294 12.8542 4.45283 11.2315 5.08708 9.81628C5.45588 8.99237 6.29232 8.59507 6.9688 8.77478L7.52977 8.92093L7.53088 8.92201C7.53754 8.9231 7.54421 8.92526 7.55199 8.92635C7.89078 9.00755 8.29069 8.87329 8.58393 8.55717C8.61058 8.52902 8.63613 8.49871 8.66057 8.46731C9.04714 7.96928 9.47036 7.51674 9.908 7.1194C10.2879 6.77295 10.6778 6.46872 11.0599 6.21323C11.4332 5.96422 11.6931 5.47053 11.6931 4.96818V4.9671L11.6953 4.30236C11.6953 3.45897 12.2607 2.70005 12.9394 2.50083C13.2671 2.40447 13.5981 2.32652 13.9281 2.26481C14.3202 2.19336 14.7123 2.14464 15.0988 2.11973L13.065 1.54161L13.0339 1.53295L13.0326 1.53284ZM22.4145 7.17773L20.4061 6.58336C20.6205 6.76958 20.8271 6.96878 21.0226 7.18208C21.277 7.45924 21.6802 7.53285 22.0301 7.36288L22.0312 7.3618L22.4145 7.17773ZM19.0865 6.18387C19.0265 6.14814 18.9676 6.11349 18.9077 6.07993C18.7755 6.00631 18.6433 5.9381 18.5122 5.87531H18.5111C18.0413 5.6512 17.6713 5.0904 17.6713 4.41266L17.6691 3.76305C17.6691 3.2239 17.3681 2.78216 16.9693 2.65118L16.9627 2.64901L16.9038 2.63277C16.876 2.62628 16.8482 2.62086 16.8194 2.61761C15.9463 2.5061 14.981 2.52992 14.0146 2.70856C13.7002 2.76594 13.3848 2.84064 13.0726 2.93158C12.5616 3.08207 12.1584 3.66777 12.1584 4.3033L12.1562 4.96803C12.1562 5.62304 11.8074 6.26073 11.322 6.58551C10.9576 6.8291 10.5855 7.11818 10.2234 7.44838C9.8057 7.82948 9.39917 8.26254 9.02927 8.74C8.95484 8.83527 8.87486 8.91972 8.78822 8.99442C8.3861 9.34303 7.87514 9.46753 7.44191 9.36468C7.4308 9.36251 7.42081 9.35927 7.4097 9.3571L6.84873 9.21095L6.84762 9.20986C6.35998 9.07994 5.7768 9.40149 5.51132 9.99694C4.89481 11.3719 4.45717 12.9492 4.27833 14.4769C4.21501 15.0193 4.44162 15.5 4.80376 15.7144L4.89151 15.7588L4.89484 15.7609C4.94038 15.7804 4.98704 15.7967 5.0348 15.8086H5.03591L5.60132 15.9472C6.13562 16.0749 6.60548 16.5686 6.69548 17.2637C6.84211 18.4015 7.17868 19.4506 7.58635 20.2756L7.58746 20.2766C7.84183 20.7952 7.81962 21.5336 7.47749 22.1269L7.13315 22.7299L7.13204 22.731C6.79657 23.3135 6.84767 24.0432 7.21535 24.4243L7.21868 24.4275C7.73299 24.9613 8.30838 25.4182 8.90711 25.7906L8.9682 25.8285L8.97265 25.8307C9.4203 26.1035 9.87907 26.3287 10.3356 26.5019C10.7822 26.6708 11.372 26.4056 11.6941 25.8383V25.8372L12.0351 25.2428C12.3873 24.6224 13.0026 24.2922 13.5225 24.3074C14.3623 24.3312 15.3276 24.1872 16.2651 23.8397L16.2662 23.8386C16.8438 23.6275 17.4526 23.8159 17.7936 24.3009L18.1246 24.7675V24.7686C18.399 25.1584 18.9377 25.2233 19.3743 24.9018C20.4007 24.1482 21.4592 23.1078 22.3391 21.8888C22.7012 21.3864 22.7367 20.6871 22.4446 20.2626H22.4435L22.1247 19.796C21.8259 19.363 21.7503 18.6755 22.0069 18.0659C22.4235 17.0807 22.7079 15.9981 22.83 14.9814H22.8312C22.91 14.3405 23.3144 13.771 23.7964 13.5242L24.3107 13.2579L24.3119 13.2568C24.7806 13.0164 25.0972 12.395 25.0283 11.8103C24.8639 10.3899 24.4529 9.04092 23.9231 7.94425C23.7009 7.48522 23.1944 7.30332 22.7567 7.5166H22.7556L22.2357 7.76669C21.6948 8.02977 21.0727 7.91285 20.6773 7.48304C20.3951 7.17556 20.0897 6.89732 19.7708 6.65157C19.5498 6.48159 19.3232 6.32677 19.0944 6.18819L19.0865 6.18387ZM10.3311 19.299C9.60243 18.2911 9.16698 16.9648 9.16698 15.462C9.16698 11.8526 11.6974 8.60235 14.7977 8.19853C14.8355 8.19312 14.8733 8.18879 14.9121 8.18446C17.3448 7.92246 19.4475 9.46308 20.2318 11.8915C20.4418 12.5421 20.5573 13.2578 20.5573 14.0178C20.5573 15.8107 19.9108 17.5288 18.8744 18.8465C17.8646 20.1326 16.4839 21.0366 14.9743 21.2738C13.0815 21.5704 11.3941 20.7714 10.3311 19.299ZM19.7897 12.0269C19.1122 9.92659 17.3638 8.53861 15.2911 8.61011C16.0575 9.58666 16.524 10.8988 16.524 12.3961C16.524 15.7827 14.1058 18.878 11.1811 19.337C11.11 19.3478 11.0378 19.3576 10.9667 19.3662C11.9309 20.4857 13.3371 21.0736 14.9 20.8289C16.2986 20.6091 17.5715 19.7635 18.507 18.5726C19.4845 17.3287 20.0943 15.709 20.0943 14.0178C20.0943 13.3054 19.9875 12.6365 19.7897 12.0269ZM14.7377 8.66305C11.8962 9.10911 9.63016 12.1339 9.63016 15.462C9.63016 16.8143 10.0034 18.0128 10.6388 18.9395C10.7932 18.932 10.9498 18.9168 11.1075 18.8919C13.8346 18.4643 16.0606 15.5541 16.0606 12.3959C16.0606 10.891 15.5597 9.58544 14.7377 8.66305ZM5.24123 23.5376L6.64197 24.3994C6.37426 23.8733 6.37204 23.1295 6.72861 22.5113L7.07295 21.9071C7.33844 21.4459 7.36619 20.8732 7.16959 20.4715C6.74304 19.6076 6.39091 18.5109 6.23653 17.32C6.17321 16.8339 5.86329 16.4744 5.49006 16.3846H5.48895L4.92354 16.246C4.8469 16.2276 4.77136 16.2016 4.69916 16.1691C4.69139 16.1659 4.68361 16.1626 4.67583 16.1583L3.27399 15.4405C3.27732 15.4589 3.27954 15.4773 3.28176 15.4946C3.42173 16.5816 3.74275 17.582 4.13265 18.369V18.3701C4.37703 18.8682 4.35592 19.5762 4.02712 20.1468L3.69834 20.7227V20.7238C3.37953 21.276 3.42619 21.9678 3.77498 22.3294H3.77609C4.22485 22.7949 4.72249 23.1998 5.24123 23.5376Z" fill="#454545" stroke="#454545" stroke-width="0.6"/>
</svg>
